<svg width="66" height="75" viewBox="0 0 66 75" fill="none" xmlns="http://www.w3.org/2000/svg">
<path d="M65 41.1449C65 59.3919 51 68.5153 34.36 73.8069C33.4887 74.0763 32.5422 74.0634 31.68 73.7705C15 68.5153 1 59.3919 1 41.1449V15.5992C1 14.6313 1.42143 13.7031 2.17157 13.0187C2.92172 12.3343 3.93913 11.9498 5 11.9498C13 11.9498 23 7.57054 29.96 2.02347C30.8074 1.36293 31.8854 1 33 1C34.1146 1 35.1926 1.36293 36.04 2.02347C43.04 7.60703 53 11.9498 61 11.9498C62.0609 11.9498 63.0783 12.3343 63.8284 13.0187C64.5786 13.7031 65 14.6313 65 15.5992V41.1449Z" fill="white" stroke="black" stroke-width="2" stroke-linecap="round" stroke-linejoin="round"/>
<path d="M33 27C36.0376 27 38.5 24.5376 38.5 21.5C38.5 18.4624 36.0376 16 33 16C29.9624 16 27.5 18.4624 27.5 21.5C27.5 24.5376 29.9624 27 33 27Z" stroke="black" stroke-width="2" stroke-linecap="round" stroke-linejoin="round"/>
<path d="M29.04 25.4602L20.46 34.0402" stroke="black" stroke-width="2" stroke-linecap="round" stroke-linejoin="round"/>
<path d="M16.5 43.5C19.5376 43.5 22 41.0376 22 38C22 34.9624 19.5376 32.5 16.5 32.5C13.4624 32.5 11 34.9624 11 38C11 41.0376 13.4624 43.5 16.5 43.5Z" stroke="black" stroke-width="2" stroke-linecap="round" stroke-linejoin="round"/>
<path d="M22 38H44" stroke="black" stroke-width="2" stroke-linecap="round" stroke-linejoin="round"/>
<path d="M49.5 43.5C52.5376 43.5 55 41.0376 55 38C55 34.9624 52.5376 32.5 49.5 32.5C46.4624 32.5 44 34.9624 44 38C44 41.0376 46.4624 43.5 49.5 43.5Z" stroke="black" stroke-width="2" stroke-linecap="round" stroke-linejoin="round"/>
<path d="M36.96 50.5402L45.54 41.9602" stroke="black" stroke-width="2" stroke-linecap="round" stroke-linejoin="round"/>
<path d="M33 60C36.0376 60 38.5 57.5376 38.5 54.5C38.5 51.4624 36.0376 49 33 49C29.9624 49 27.5 51.4624 27.5 54.5C27.5 57.5376 29.9624 60 33 60Z" stroke="black" stroke-width="2" stroke-linecap="round" stroke-linejoin="round"/>
</svg>
